<?xml version="1.0" standalone="no"?>
<!DOCTYPE svg PUBLIC "-//W3C//DTD SVG 20010904//EN"
 "http://www.w3.org/TR/2001/REC-SVG-20010904/DTD/svg10.dtd">
<svg version="1.0" xmlns="http://www.w3.org/2000/svg"
 width="480.000000pt" height="480.000000pt" viewBox="0 0 480.000000 480.000000"
 preserveAspectRatio="xMidYMid meet">

<g transform="translate(0.000000,480.000000) scale(0.100000,-0.100000)"
fill="#000000" stroke="none">
<path d="M2636 4369 c-22 -5 -46 -15 -53 -21 -8 -6 -44 -12 -81 -12 -52 -1
-75 -6 -105 -24 -59 -37 -91 -86 -91 -140 -1 -46 0 -47 34 -52 45 -7 49 -27
14 -89 -16 -30 -24 -57 -20 -67 5 -14 13 -10 45 25 41 44 61 50 85 25 28 -27
14 -80 -37 -131 l-31 -33 34 -35 c18 -19 69 -53 113 -76 89 -46 96 -46 160 10
21 19 44 30 57 29 15 -2 32 9 54 35 25 31 31 47 30 83 -1 38 4 49 38 84 32 35
38 48 38 85 0 35 -6 49 -31 74 -17 17 -35 31 -40 31 -5 0 -9 18 -9 39 0 60
-31 90 -116 111 l-69 18 58 1 c41 1 57 5 57 15 0 24 -65 31 -134 15z"/>
<path d="M1180 4135 c7 -8 10 -22 6 -30 -7 -18 -42 -20 -49 -2 -3 7 -6 5 -6
-5 -1 -15 8 -18 44 -18 33 0 45 -4 45 -15 0 -12 -15 -15 -73 -15 -96 0 -109
-10 -115 -87 -5 -64 10 -93 49 -93 14 0 19 7 19 28 0 16 9 38 20 50 17 18 32
22 86 22 95 0 104 7 104 85 0 81 -12 95 -87 95 -48 0 -54 -2 -43 -15z"/>
<path d="M2660 3485 c-292 -36 -395 -69 -432 -138 -9 -17 -8 -17 23 -1 85 43
189 -18 189 -111 0 -69 -79 -299 -160 -464 -57 -116 -68 -146 -57 -153 9 -5
17 -33 22 -75 4 -37 20 -130 36 -208 16 -77 29 -147 29 -156 0 -13 -15 -18
-72 -23 -219 -22 -529 -105 -686 -185 -23 -12 -45 -21 -50 -21 -5 0 -12 22
-16 49 -6 49 21 201 90 498 l29 123 53 0 53 0 -36 44 c-27 33 -50 49 -88 62
-29 9 -68 25 -87 34 -31 16 -71 19 -315 23 -154 3 -286 3 -292 0 -21 -8 -18
-149 3 -157 9 -3 89 -6 179 -6 l163 0 7 -37 c3 -21 15 -67 25 -103 17 -60 50
-211 83 -387 12 -63 12 -83 -3 -171 -15 -90 -20 -103 -58 -148 -48 -58 -88
-139 -101 -209 -6 -27 -17 -165 -26 -305 -43 -703 -52 -790 -82 -790 -11 0
-13 -7 -8 -31 9 -41 8 -84 -3 -142 -8 -42 -7 -48 6 -45 10 2 19 19 24 43 18
92 13 86 68 79 27 -4 87 -3 135 1 l85 7 0 39 c0 28 -4 39 -15 39 -20 0 -21 -4
24 177 36 145 80 340 96 420 6 29 10 33 40 33 40 0 33 17 80 -205 69 -326 88
-410 96 -425 15 -26 9 160 -7 250 -36 203 -97 553 -112 647 -15 99 -15 103 4
124 10 12 36 30 57 40 l37 19 0 -79 c0 -145 40 -454 60 -466 11 -7 16 36 35
281 8 111 18 229 21 263 6 52 5 61 -10 61 -22 0 -20 22 3 51 19 24 20 24 292
29 l274 5 12 90 c7 50 22 151 33 225 11 74 31 221 46 325 51 380 60 426 94
460 l30 30 225 3 225 3 -5 207 c-9 344 -11 356 -72 414 -62 59 -107 66 -293
43z m-1205 -922 c-3 -32 -11 -89 -17 -128 -9 -61 -12 -67 -20 -45 -6 14 -14
52 -18 85 -5 33 -11 79 -15 103 l-8 42 42 0 42 0 -6 -57z m97 -1388 c2 -24 -1
-30 -17 -30 -16 0 -19 6 -17 30 1 17 5 37 8 45 5 13 6 13 14 0 5 -9 10 -29 12
-45z"/>
<path d="M1795 2780 c7 -12 139 -80 155 -80 12 0 50 59 50 78 0 9 -28 12 -106
12 -69 0 -103 -3 -99 -10z"/>
<path d="M4165 2705 c0 -87 1 -90 23 -76 19 12 12 155 -8 159 -12 2 -15 -12
-15 -83z"/>
<path d="M3884 2736 c-47 -21 -74 -62 -74 -112 0 -57 35 -97 119 -138 59 -28
66 -34 66 -61 0 -24 -5 -31 -32 -38 -25 -8 -40 -5 -78 14 -35 18 -50 21 -63
12 -40 -25 -22 -65 43 -94 79 -36 183 -14 215 46 20 37 17 101 -7 133 -10 15
-50 43 -88 62 -77 40 -96 61 -79 88 12 17 26 18 96 6 30 -5 37 -3 42 14 10 31
-3 49 -45 66 -47 19 -74 20 -115 2z"/>
<path d="M3650 2721 c-5 -11 -10 -86 -10 -170 0 -143 -1 -151 -21 -162 -17 -9
-30 -7 -61 7 -46 21 -73 11 -73 -26 0 -54 110 -88 179 -55 59 28 66 52 66 238
0 113 -4 167 -12 175 -18 18 -56 14 -68 -7z"/>
<path d="M538 2315 c-31 -28 -48 -53 -48 -67 1 -20 3 -19 14 8 8 17 24 38 36
47 19 13 56 57 48 57 -2 0 -24 -20 -50 -45z"/>
<path d="M562 2278 c-18 -18 -14 -50 8 -78 19 -25 20 -25 20 -3 0 12 -5 25
-11 29 -6 3 -9 19 -7 35 3 16 4 29 3 29 0 0 -6 -5 -13 -12z"/>
<path d="M3815 2245 c-22 -8 -64 -14 -92 -14 -52 -1 -52 -1 -43 -26 5 -14 12
-46 15 -72 3 -27 11 -60 16 -75 9 -21 4 -67 -21 -205 -48 -272 -85 -485 -130
-748 -22 -132 -49 -285 -58 -340 -13 -68 -16 -124 -13 -175 8 -98 4 -109 94
300 l42 195 150 0 149 0 13 -60 c6 -33 30 -143 53 -245 42 -190 110 -516 110
-525 0 -3 7 -5 15 -5 19 0 20 -15 -16 195 -16 99 -48 284 -69 410 -22 127 -55
322 -75 435 -20 113 -51 300 -70 415 -20 116 -40 239 -46 275 -10 56 -8 77 10
155 12 50 24 98 27 108 6 20 -5 20 -61 2z m-34 -522 c6 -16 22 -77 36 -138 47
-215 85 -400 87 -420 1 -19 -5 -20 -129 -20 l-130 0 1 25 c0 14 17 102 38 195
20 94 47 218 59 278 11 59 23 107 24 107 2 0 8 -12 14 -27z"/>
<path d="M535 2040 l-40 -7 35 -1 c19 -1 42 3 50 8 16 11 14 11 -45 0z"/>
<path d="M1860 1598 c-1 -6 -40 -500 -51 -639 -12 -141 -11 -147 11 -215 13
-38 42 -113 66 -168 24 -54 44 -100 44 -102 0 -2 -7 -4 -15 -4 -18 0 -18 -2
-4 -51 l12 -37 82 -7 c46 -4 115 -4 154 0 68 7 71 8 71 34 0 33 -10 48 -35 52
-15 3 -23 20 -37 82 -41 180 -95 663 -85 768 8 92 52 169 124 216 12 8 59 28
105 43 l83 29 -262 1 c-145 0 -263 -1 -263 -2z"/>
<path d="M3432 354 c-15 -71 -15 -104 -2 -104 16 0 30 46 30 93 0 69 -16 75
-28 11z"/>
<path d="M1761 293 c-1 -24 4 -43 9 -43 12 0 12 37 0 65 -7 15 -9 10 -9 -22z"/>
<path d="M1061 158 c-30 -17 -93 -41 -140 -53 -91 -23 -113 -44 -75 -72 25
-18 457 -19 471 -1 5 7 7 45 4 83 l-6 70 -100 2 c-96 3 -102 2 -154 -29z"/>
<path d="M1985 155 c-21 -19 -60 -43 -89 -54 -55 -20 -70 -46 -40 -68 25 -18
383 -19 385 0 2 24 -2 53 -17 105 l-15 52 -94 0 c-93 0 -94 0 -130 -35z"/>
</g>
</svg>
