<?xml version="1.0" encoding="UTF-8"?>
<!DOCTYPE svg PUBLIC "-//W3C//DTD SVG 1.1//EN" "http://www.w3.org/Graphics/SVG/1.1/DTD/svg11.dtd">
<svg xmlns="http://www.w3.org/2000/svg" version="1.1" width="480px" height="480px" style="shape-rendering:geometricPrecision; text-rendering:geometricPrecision; image-rendering:optimizeQuality; fill-rule:evenodd; clip-rule:evenodd" xmlns:xlink="http://www.w3.org/1999/xlink">
<g><path style="opacity:0.993" fill="#16162d" d="M 291.5,79.5 C 289.825,81.002 287.992,82.3353 286,83.5C 285.17,88.6416 283.837,93.6416 282,98.5C 279.326,100.871 276.159,102.037 272.5,102C 270.694,104.826 268.361,106.992 265.5,108.5C 261.885,110.012 258.885,109.179 256.5,106C 250.009,104.198 244.509,100.698 240,95.5C 239.508,94.451 239.674,93.451 240.5,92.5C 246.357,88.8377 248.024,83.8377 245.5,77.5C 242.282,75.8161 239.615,76.4828 237.5,79.5C 235.896,80.287 235.229,81.6203 235.5,83.5C 234.5,83.5 233.5,83.5 232.5,83.5C 233.564,78.9792 235.231,74.6459 237.5,70.5C 237.392,69.5581 237.059,68.7247 236.5,68C 234.455,67.5099 232.455,67.6765 230.5,68.5C 228.754,67.7505 227.754,66.4172 227.5,64.5C 228.524,54.972 233.524,48.472 242.5,45C 246.423,44.2073 250.256,44.374 254,45.5C 260.446,40.9129 267.612,39.4129 275.5,41C 277.698,42.67 278.032,44.67 276.5,47C 282.907,49.6353 285.907,54.4687 285.5,61.5C 292.748,65.8444 294.748,71.8444 291.5,79.5 Z"/></g>
<g><path style="opacity:0.094" fill="#1fa5ab" d="M 131.5,46.5 C 128.167,47.1667 124.833,47.8333 121.5,48.5C 109.142,50.0588 99.1421,55.7255 91.5,65.5C 91.1667,65.5 90.8333,65.5 90.5,65.5C 93.3741,60.4462 96.8741,55.7795 101,51.5C 105.588,47.1756 111.088,45.3422 117.5,46C 118.893,44.6369 120.559,43.8036 122.5,43.5C 125.597,44.3099 128.597,45.3099 131.5,46.5 Z"/></g>
<g><path style="opacity:0.337" fill="#47a1bf" d="M 121.5,48.5 C 126.179,48.3342 130.845,48.5008 135.5,49C 141.257,53.0951 147.257,56.7618 153.5,60C 157.667,65.5 161.833,71 166,76.5C 169.657,84.1187 170.991,92.1187 170,100.5C 168.561,103.603 166.727,106.436 164.5,109C 154.7,115.542 144.034,119.375 132.5,120.5C 157.905,109.806 164.738,91.8063 153,66.5C 149.833,64.6667 147.333,62.1667 145.5,59C 144.251,58.2599 143.251,58.4265 142.5,59.5C 129.845,49.8112 116.512,48.9778 102.5,57C 85.5999,72.3428 84.2665,88.8428 98.5,106.5C 97.9569,106.56 97.6236,106.893 97.5,107.5C 98.961,109.517 100.294,111.517 101.5,113.5C 97.4564,112.969 94.2897,110.969 92,107.5C 90.4157,103.325 88.0823,99.6587 85,96.5C 83.0589,89.8429 83.0589,83.1762 85,76.5C 87.1762,72.8105 89.3429,69.1438 91.5,65.5C 99.1421,55.7255 109.142,50.0588 121.5,48.5 Z"/></g>
<g><path style="opacity:0.267" fill="#619dc6" d="M 131.5,46.5 C 155.142,48.9914 177.476,55.8248 198.5,67C 207.328,71.5798 215.995,76.4131 224.5,81.5C 225.15,79.8164 226.15,78.4831 227.5,77.5C 226.765,82.9703 224.432,87.6369 220.5,91.5C 221.865,92.941 223.365,94.2744 225,95.5C 225.932,109.599 233.432,117.265 247.5,118.5C 248.159,121.455 248.492,124.455 248.5,127.5C 246.811,128.931 244.811,129.764 242.5,130C 241.29,131.039 240.29,132.206 239.5,133.5C 230.319,134.743 223.652,139.41 219.5,147.5C 219.957,148.298 220.624,148.631 221.5,148.5C 216.002,158.116 212.169,168.449 210,179.5C 207.582,184.944 205.082,190.277 202.5,195.5C 191.833,195.5 181.167,195.5 170.5,195.5C 170.167,195.5 169.833,195.5 169.5,195.5C 169.167,194.833 168.833,194.167 168.5,193.5C 166.936,177.796 164.936,162.129 162.5,146.5C 132.506,145.333 102.506,145.167 72.5,146C 69.8115,148.83 67.8115,151.996 66.5,155.5C 69.5,155.5 72.5,155.5 75.5,155.5C 76.515,170.659 78.515,185.659 81.5,200.5C 83.0453,201.452 84.712,201.785 86.5,201.5C 84.921,207.136 85.2543,212.636 87.5,218C 99.1619,218.5 110.829,218.667 122.5,218.5C 122.263,219.791 122.596,220.791 123.5,221.5C 124.344,224.345 125.01,227.345 125.5,230.5C 129.571,245.586 132.571,260.92 134.5,276.5C 133.907,283.58 132.907,290.58 131.5,297.5C 119.44,310.365 114.44,325.698 116.5,343.5C 114.041,367.294 112.374,391.294 111.5,415.5C 111.5,416.167 111.5,416.833 111.5,417.5C 111.167,417.5 110.833,417.5 110.5,417.5C 97.2401,415.249 83.9067,413.415 70.5,412C 54.7001,410.633 41.2001,404.466 30,393.5C 23.7466,382.602 23.4132,371.602 29,360.5C 39.4155,341.808 54.2489,329.808 73.5,324.5C 74.4305,321.638 76.0971,319.305 78.5,317.5C 88.9166,313.789 98.9166,309.289 108.5,304C 119.708,294.036 124.208,281.536 122,266.5C 121.165,258.322 119.499,250.322 117,242.5C 94.4812,233.164 73.9812,220.664 55.5,205C 41.9571,193.409 33.4571,178.909 30,161.5C 29.1902,144.609 35.3569,130.776 48.5,120C 53.6029,116.734 58.2696,112.9 62.5,108.5C 71.6083,93.9311 80.9417,79.5977 90.5,65.5C 90.8333,65.5 91.1667,65.5 91.5,65.5C 89.3429,69.1438 87.1762,72.8105 85,76.5C 83.0589,83.1762 83.0589,89.8429 85,96.5C 88.0823,99.6587 90.4157,103.325 92,107.5C 94.2897,110.969 97.4564,112.969 101.5,113.5C 110.941,119.258 121.274,121.591 132.5,120.5C 144.034,119.375 154.7,115.542 164.5,109C 166.727,106.436 168.561,103.603 170,100.5C 170.991,92.1187 169.657,84.1187 166,76.5C 161.833,71 157.667,65.5 153.5,60C 147.257,56.7618 141.257,53.0951 135.5,49C 130.845,48.5008 126.179,48.3342 121.5,48.5C 124.833,47.8333 128.167,47.1667 131.5,46.5 Z"/></g>
<g><path style="opacity:0.997" fill="#f9fafb" d="M 142.5,59.5 C 152.041,67.6188 155.541,77.9521 153,90.5C 145.037,112.231 129.87,119.731 107.5,113C 104.079,111.301 101.079,109.135 98.5,106.5C 84.2665,88.8428 85.5999,72.3428 102.5,57C 116.512,48.9778 129.845,49.8112 142.5,59.5 Z"/></g>
<g><path style="opacity:0.439" fill="#357083" d="M 132.5,120.5 C 121.274,121.591 110.941,119.258 101.5,113.5C 100.294,111.517 98.961,109.517 97.5,107.5C 97.6236,106.893 97.9569,106.56 98.5,106.5C 101.079,109.135 104.079,111.301 107.5,113C 129.87,119.731 145.037,112.231 153,90.5C 155.541,77.9521 152.041,67.6188 142.5,59.5C 143.251,58.4265 144.251,58.2599 145.5,59C 147.333,62.1667 149.833,64.6667 153,66.5C 164.738,91.8063 157.905,109.806 132.5,120.5 Z"/></g>
<g><path style="opacity:1" fill="#8caccf" d="M 126.5,64.5 C 123.15,64.335 119.817,64.5017 116.5,65C 117.406,66.6995 117.739,68.5328 117.5,70.5C 115.61,70.7035 114.11,70.0368 113,68.5C 112.51,69.7932 112.343,71.1266 112.5,72.5C 115.187,72.3359 117.854,72.5026 120.5,73C 120.167,73.3333 119.833,73.6667 119.5,74C 114.845,74.4992 110.179,74.6658 105.5,74.5C 107.265,73.5386 109.265,73.2053 111.5,73.5C 109.601,65.7333 112.601,62.3999 120.5,63.5C 122.696,63.5046 124.696,63.838 126.5,64.5 Z"/></g>
<g><path style="opacity:1" fill="#f7cfba" d="M 237.5,79.5 C 239.882,77.9539 242.549,77.2872 245.5,77.5C 248.024,83.8377 246.357,88.8377 240.5,92.5C 239.674,93.451 239.508,94.451 240,95.5C 244.509,100.698 250.009,104.198 256.5,106C 258.885,109.179 261.885,110.012 265.5,108.5C 266.65,113.44 267.65,118.44 268.5,123.5C 261.815,124.179 255.148,125.513 248.5,127.5C 248.492,124.455 248.159,121.455 247.5,118.5C 233.432,117.265 225.932,109.599 225,95.5C 223.365,94.2744 221.865,92.941 220.5,91.5C 224.432,87.6369 226.765,82.9703 227.5,77.5C 227.833,76.1667 228.167,74.8333 228.5,73.5C 230.382,72.779 230.715,71.779 229.5,70.5C 229.833,69.8333 230.167,69.1667 230.5,68.5C 232.455,67.6765 234.455,67.5099 236.5,68C 237.059,68.7247 237.392,69.5581 237.5,70.5C 235.231,74.6459 233.564,78.9792 232.5,83.5C 233.5,83.5 234.5,83.5 235.5,83.5C 235.229,81.6203 235.896,80.287 237.5,79.5 Z"/></g>
<g><path style="opacity:0.337" fill="#202b41" d="M 229.5,70.5 C 230.715,71.779 230.382,72.779 228.5,73.5C 227.115,72.0527 227.448,71.0527 229.5,70.5 Z"/></g>
<g><path style="opacity:1" fill="#497fad" d="M 126.5,64.5 C 128.044,64.7031 129.378,65.3698 130.5,66.5C 131.492,70.7828 131.826,75.1161 131.5,79.5C 130.5,81.1667 129.167,82.5 127.5,83.5C 123.167,83.5 118.833,83.5 114.5,83.5C 112.983,83.5106 111.816,84.1772 111,85.5C 110.503,88.146 110.336,90.8127 110.5,93.5C 105.942,94.6195 103.109,92.9529 102,88.5C 101.333,84.5 101.333,80.5 102,76.5C 102.816,75.1772 103.983,74.5106 105.5,74.5C 110.179,74.6658 114.845,74.4992 119.5,74C 119.833,73.6667 120.167,73.3333 120.5,73C 117.854,72.5026 115.187,72.3359 112.5,72.5C 112.343,71.1266 112.51,69.7932 113,68.5C 114.11,70.0368 115.61,70.7035 117.5,70.5C 117.739,68.5328 117.406,66.6995 116.5,65C 119.817,64.5017 123.15,64.335 126.5,64.5 Z"/></g>
<g><path style="opacity:1" fill="#ffe373" d="M 140.5,87.5 C 140.663,85.1432 140.497,82.8098 140,80.5C 139,80.1667 138,79.8333 137,79.5C 132.266,83.4035 127.099,87.5702 121.5,92C 126.823,92.4994 132.156,92.666 137.5,92.5C 132.167,93.1667 126.833,93.8333 121.5,94.5C 120.732,93.7375 120.232,92.7375 120,91.5C 117.766,92.8909 115.433,94.8909 113,97.5C 112.536,98.0944 112.369,98.7611 112.5,99.5C 111.353,95.3537 111.186,91.0204 112,86.5C 112.383,85.944 112.883,85.6107 113.5,85.5C 118.305,84.9401 122.971,84.2735 127.5,83.5C 129.167,82.5 130.5,81.1667 131.5,79.5C 132.461,77.7354 132.795,75.7354 132.5,73.5C 141.225,74.6603 143.891,79.327 140.5,87.5 Z"/></g>
<g><path style="opacity:1" fill="#8f7b7c" d="M 245.5,77.5 C 242.549,77.2872 239.882,77.9539 237.5,79.5C 239.615,76.4828 242.282,75.8161 245.5,77.5 Z"/></g>
<g><path style="opacity:0.267" fill="#619dc6" d="M 393.5,164.5 C 392.596,165.209 392.263,166.209 392.5,167.5C 391.833,167.167 391.167,166.833 390.5,166.5C 391.219,164.305 390.219,162.805 387.5,162C 373.534,158.109 359.867,158.943 346.5,164.5C 345.702,164.957 345.369,165.624 345.5,166.5C 335.883,172.397 328.549,180.397 323.5,190.5C 318.426,174.038 311.426,158.371 302.5,143.5C 301.614,144.325 301.281,145.325 301.5,146.5C 299.025,133.766 291.358,128.099 278.5,129.5C 278.822,127.278 278.155,125.444 276.5,124C 273.854,123.503 271.187,123.336 268.5,123.5C 267.65,118.44 266.65,113.44 265.5,108.5C 268.361,106.992 270.694,104.826 272.5,102C 276.159,102.037 279.326,100.871 282,98.5C 283.837,93.6416 285.17,88.6416 286,83.5C 287.992,82.3353 289.825,81.002 291.5,79.5C 316.182,78.3325 340.848,78.4992 365.5,80C 374.081,81.0826 382.081,83.7493 389.5,88C 396.742,95.6409 400.075,104.808 399.5,115.5C 398.512,131.576 396.178,147.41 392.5,163C 393.056,163.383 393.389,163.883 393.5,164.5 Z"/></g>
<g><path style="opacity:1" fill="#faedb8" d="M 114.5,83.5 C 118.833,83.5 123.167,83.5 127.5,83.5C 122.971,84.2735 118.305,84.9401 113.5,85.5C 113.833,84.8333 114.167,84.1667 114.5,83.5 Z"/></g>
<g><path style="opacity:1" fill="#ffd94c" d="M 140.5,87.5 C 140.408,89.8477 139.408,91.5144 137.5,92.5C 132.156,92.666 126.823,92.4994 121.5,92C 127.099,87.5702 132.266,83.4035 137,79.5C 138,79.8333 139,80.1667 140,80.5C 140.497,82.8098 140.663,85.1432 140.5,87.5 Z"/></g>
<g><path style="opacity:1" fill="#ffda51" d="M 121.5,94.5 C 124.833,94.5 128.167,94.5 131.5,94.5C 132.051,99.118 130.051,101.951 125.5,103C 122.5,103.667 119.5,103.667 116.5,103C 114.456,102.502 113.122,101.335 112.5,99.5C 112.369,98.7611 112.536,98.0944 113,97.5C 115.433,94.8909 117.766,92.8909 120,91.5C 120.232,92.7375 120.732,93.7375 121.5,94.5 Z"/></g>
<g><path style="opacity:1" fill="#fef0c2" d="M 125.5,96.5 C 126.5,96.5 127.5,96.5 128.5,96.5C 128.5,97.8333 128.5,99.1667 128.5,100.5C 127.5,100.5 126.5,100.5 125.5,100.5C 125.5,99.1667 125.5,97.8333 125.5,96.5 Z"/></g>
<g><path style="opacity:0.991" fill="#f4f4f8" d="M 268.5,123.5 C 271.187,123.336 273.854,123.503 276.5,124C 278.155,125.444 278.822,127.278 278.5,129.5C 274.434,129.307 270.434,129.64 266.5,130.5C 258.568,130.492 250.902,131.492 243.5,133.5C 242.167,134.833 240.833,134.833 239.5,133.5C 240.29,132.206 241.29,131.039 242.5,130C 244.811,129.764 246.811,128.931 248.5,127.5C 255.148,125.513 261.815,124.179 268.5,123.5 Z"/></g>
<g><path style="opacity:0.999" fill="#624ee3" d="M 301.5,146.5 C 301.325,162.182 301.658,177.849 302.5,193.5C 302.5,194.833 302.5,196.167 302.5,197.5C 288.163,197.333 273.829,197.5 259.5,198C 252.327,200.646 249.327,205.813 250.5,213.5C 247.565,229.363 244.898,245.363 242.5,261.5C 238.5,261.5 234.5,261.5 230.5,261.5C 228.986,250.915 226.986,240.415 224.5,230C 230.684,218.942 233.017,207.109 231.5,194.5C 231.5,194.167 231.5,193.833 231.5,193.5C 233.723,190.198 235.39,186.532 236.5,182.5C 237.987,177.555 239.32,172.555 240.5,167.5C 243.409,162.402 244.075,157.069 242.5,151.5C 241.5,148.5 239.5,146.5 236.5,145.5C 235.054,144.06 233.221,143.393 231,143.5C 229.615,143.514 228.449,143.848 227.5,144.5C 224.708,144.622 222.708,145.956 221.5,148.5C 220.624,148.631 219.957,148.298 219.5,147.5C 223.652,139.41 230.319,134.743 239.5,133.5C 240.833,134.833 242.167,134.833 243.5,133.5C 251.398,133.214 259.065,132.214 266.5,130.5C 270.434,129.64 274.434,129.307 278.5,129.5C 291.358,128.099 299.025,133.766 301.5,146.5 Z"/></g>
<g><path style="opacity:0.996" fill="#a599ed" d="M 266.5,130.5 C 259.065,132.214 251.398,133.214 243.5,133.5C 250.902,131.492 258.568,130.492 266.5,130.5 Z"/></g>
<g><path style="opacity:1" fill="#b8aef0" d="M 227.5,144.5 C 228.449,143.848 229.615,143.514 231,143.5C 233.221,143.393 235.054,144.06 236.5,145.5C 233.545,144.841 230.545,144.508 227.5,144.5 Z"/></g>
<g><path style="opacity:0.998" fill="#fbfcfd" d="M 227.5,144.5 C 230.545,144.508 233.545,144.841 236.5,145.5C 239.5,146.5 241.5,148.5 242.5,151.5C 242.635,156.953 241.968,162.286 240.5,167.5C 239.32,172.555 237.987,177.555 236.5,182.5C 233.887,185.645 232.221,189.311 231.5,193.5C 231.5,193.833 231.5,194.167 231.5,194.5C 230.662,194.842 230.328,195.508 230.5,196.5C 227.799,199.235 226.132,202.569 225.5,206.5C 223.953,207.768 222.953,209.435 222.5,211.5C 219.68,217.178 216.18,222.511 212,227.5C 209.106,230.733 205.939,233.566 202.5,236C 199.118,236.824 195.784,236.657 192.5,235.5C 184.416,230.646 177.416,224.646 171.5,217.5C 168.833,214.5 166.167,211.5 163.5,208.5C 161.739,203.282 163.239,199.282 168,196.5C 169.107,197.712 169.607,197.379 169.5,195.5C 169.833,195.5 170.167,195.5 170.5,195.5C 171.589,199.586 174.255,201.919 178.5,202.5C 183.536,205.356 188.702,208.023 194,210.5C 195.599,209.929 196.766,208.929 197.5,207.5C 198.75,207.423 199.583,206.756 200,205.5C 201.079,202.937 201.579,200.271 201.5,197.5C 198.482,197.665 195.482,197.498 192.5,197C 196.025,196.821 199.359,196.321 202.5,195.5C 205.082,190.277 207.582,184.944 210,179.5C 212.169,168.449 216.002,158.116 221.5,148.5C 222.708,145.956 224.708,144.622 227.5,144.5 Z"/></g>
<g><path style="opacity:0.999" fill="#fefefe" d="M 161.5,190.5 C 156.18,189.734 150.846,189.568 145.5,190C 145.071,193.047 145.071,196.214 145.5,199.5C 132.167,199.5 118.833,199.5 105.5,199.5C 105.5,198.5 105.5,197.5 105.5,196.5C 99.1318,196.83 92.7985,196.496 86.5,195.5C 83.4388,179.62 81.1054,163.62 79.5,147.5C 105.491,146.5 131.491,146.167 157.5,146.5C 159.053,161.147 160.387,175.814 161.5,190.5 Z"/></g>
<g><path style="opacity:1" fill="#d6dde9" d="M 168.5,193.5 C 166.046,192.773 163.713,191.773 161.5,190.5C 160.387,175.814 159.053,161.147 157.5,146.5C 131.491,146.167 105.491,146.5 79.5,147.5C 81.1054,163.62 83.4388,179.62 86.5,195.5C 92.7985,196.496 99.1318,196.83 105.5,196.5C 105.5,197.5 105.5,198.5 105.5,199.5C 118.833,199.5 132.167,199.5 145.5,199.5C 146.167,199.5 146.5,199.833 146.5,200.5C 126.66,200.17 106.993,200.503 87.5,201.5C 87.1667,201.5 86.8333,201.5 86.5,201.5C 84.712,201.785 83.0453,201.452 81.5,200.5C 78.515,185.659 76.515,170.659 75.5,155.5C 72.5,155.5 69.5,155.5 66.5,155.5C 67.8115,151.996 69.8115,148.83 72.5,146C 102.506,145.167 132.506,145.333 162.5,146.5C 164.936,162.129 166.936,177.796 168.5,193.5 Z"/></g>
<g><path style="opacity:0.997" fill="#fafbfc" d="M 323.5,190.5 C 323.435,193.428 322.768,196.095 321.5,198.5C 316.025,197.511 310.358,197.178 304.5,197.5C 303.229,180.366 302.229,163.366 301.5,146.5C 301.281,145.325 301.614,144.325 302.5,143.5C 311.426,158.371 318.426,174.038 323.5,190.5 Z"/></g>
<g><path style="opacity:1" fill="#bab0f0" d="M 242.5,151.5 C 244.075,157.069 243.409,162.402 240.5,167.5C 241.968,162.286 242.635,156.953 242.5,151.5 Z"/></g>
<g><path style="opacity:0.337" fill="#53a3b8" d="M 390.5,166.5 C 375.563,159.864 360.563,159.864 345.5,166.5C 345.369,165.624 345.702,164.957 346.5,164.5C 359.867,158.943 373.534,158.109 387.5,162C 390.219,162.805 391.219,164.305 390.5,166.5 Z"/></g>
<g><path style="opacity:1" fill="#f2db20" d="M 390.5,166.5 C 391.167,166.833 391.833,167.167 392.5,167.5C 398.773,171.107 404.106,175.773 408.5,181.5C 416.577,194.922 418.577,209.255 414.5,224.5C 412.866,227.768 411.199,231.101 409.5,234.5C 408.485,231.154 406.485,228.487 403.5,226.5C 403.027,225.094 402.027,224.427 400.5,224.5C 396.856,223.186 393.356,221.519 390,219.5C 389.211,217.288 389.378,215.288 390.5,213.5C 393.237,213.401 395.904,213.735 398.5,214.5C 402.509,214.986 404.342,213.32 404,209.5C 399.002,204.393 393.168,203.227 386.5,206C 378.568,213.258 378.568,220.591 386.5,228C 388.488,228.938 390.488,229.772 392.5,230.5C 393.287,232.104 394.62,232.771 396.5,232.5C 400.013,234.908 400.346,237.742 397.5,241C 394.833,241.667 392.167,241.667 389.5,241C 387.334,238.465 384.667,237.465 381.5,238C 378.735,240.966 379.068,243.633 382.5,246C 385.822,248.332 389.489,249.498 393.5,249.5C 391.81,251.342 389.81,252.675 387.5,253.5C 382.55,254.812 377.55,255.812 372.5,256.5C 367.833,256.5 363.167,256.5 358.5,256.5C 331.806,247.45 319.473,228.783 321.5,200.5C 321.5,199.833 321.5,199.167 321.5,198.5C 322.768,196.095 323.435,193.428 323.5,190.5C 328.549,180.397 335.883,172.397 345.5,166.5C 360.563,159.864 375.563,159.864 390.5,166.5 Z"/></g>
<g><path style="opacity:0.094" fill="#24a3ab" d="M 393.5,164.5 C 410.208,172.561 419.542,185.894 421.5,204.5C 419.51,198.727 417.01,193.06 414,187.5C 412.669,185.004 410.836,183.004 408.5,181.5C 404.106,175.773 398.773,171.107 392.5,167.5C 392.263,166.209 392.596,165.209 393.5,164.5 Z"/></g>
<g><path style="opacity:1" fill="#b8aff0" d="M 301.5,146.5 C 302.229,163.366 303.229,180.366 304.5,197.5C 303.833,196.167 303.167,194.833 302.5,193.5C 301.658,177.849 301.325,162.182 301.5,146.5 Z"/></g>
<g><path style="opacity:1" fill="#9a8deb" d="M 236.5,182.5 C 235.39,186.532 233.723,190.198 231.5,193.5C 232.221,189.311 233.887,185.645 236.5,182.5 Z"/></g>
<g><path style="opacity:1" fill="#fbd3be" d="M 161.5,190.5 C 163.713,191.773 166.046,192.773 168.5,193.5C 168.833,194.167 169.167,194.833 169.5,195.5C 169.607,197.379 169.107,197.712 168,196.5C 163.239,199.282 161.739,203.282 163.5,208.5C 158.512,206.615 153.512,204.948 148.5,203.5C 148.573,201.973 147.906,200.973 146.5,200.5C 146.5,199.833 146.167,199.5 145.5,199.5C 145.071,196.214 145.071,193.047 145.5,190C 150.846,189.568 156.18,189.734 161.5,190.5 Z"/></g>
<g><path style="opacity:0.996" fill="#5649c4" d="M 231.5,194.5 C 233.017,207.109 230.684,218.942 224.5,230C 226.986,240.415 228.986,250.915 230.5,261.5C 234.5,261.5 238.5,261.5 242.5,261.5C 242.5,263.167 242.5,264.833 242.5,266.5C 242.167,266.5 241.833,266.5 241.5,266.5C 241.5,265.5 241.5,264.5 241.5,263.5C 237.466,263.495 233.466,263.162 229.5,262.5C 226.994,248.3 224.328,234.133 221.5,220C 221.395,217.195 221.728,214.361 222.5,211.5C 222.953,209.435 223.953,207.768 225.5,206.5C 228.201,203.765 229.868,200.431 230.5,196.5C 230.328,195.508 230.662,194.842 231.5,194.5 Z"/></g>
<g><path style="opacity:1" fill="#dce1eb" d="M 170.5,195.5 C 181.167,195.5 191.833,195.5 202.5,195.5C 199.359,196.321 196.025,196.821 192.5,197C 195.482,197.498 198.482,197.665 201.5,197.5C 201.579,200.271 201.079,202.937 200,205.5C 199.583,206.756 198.75,207.423 197.5,207.5C 198.086,205.16 199.086,202.993 200.5,201C 192.833,200.333 185.167,200.333 177.5,201C 178.056,201.383 178.389,201.883 178.5,202.5C 174.255,201.919 171.589,199.586 170.5,195.5 Z"/></g>
<g><path style="opacity:0.999" fill="#83acfc" d="M 302.5,193.5 C 303.167,194.833 303.833,196.167 304.5,197.5C 310.358,197.178 316.025,197.511 321.5,198.5C 321.5,199.167 321.5,199.833 321.5,200.5C 316.858,220.378 322.858,237.211 339.5,251C 345.606,253.553 351.606,256.386 357.5,259.5C 354.628,277.765 351.795,296.099 349,314.5C 347.293,317.59 344.793,319.59 341.5,320.5C 339.612,319.725 337.612,319.725 335.5,320.5C 335.5,321.5 335.5,322.5 335.5,323.5C 334.596,322.791 334.263,321.791 334.5,320.5C 313.5,320.5 292.5,320.5 271.5,320.5C 269.317,319.157 267.317,319.49 265.5,321.5C 262.375,320.521 259.042,320.187 255.5,320.5C 253.167,320.5 250.833,320.5 248.5,320.5C 245.941,320.802 243.607,320.468 241.5,319.5C 244.361,319.487 245.361,318.321 244.5,316C 246.077,309.383 247.411,302.716 248.5,296C 248.167,295.667 247.833,295.333 247.5,295C 248.167,293.333 248.833,291.667 249.5,290C 249.554,287.199 249.554,284.366 249.5,281.5C 250.074,279.941 250.74,278.441 251.5,277C 251.167,276.667 250.833,276.333 250.5,276C 251.5,271 252.5,266 253.5,261C 253.167,260.667 252.833,260.333 252.5,260C 254.046,258.56 254.879,256.727 255,254.5C 256.177,249.14 256.344,243.807 255.5,238.5C 258.24,225.572 260.24,212.572 261.5,199.5C 258.215,199.269 255.715,200.603 254,203.5C 252.514,206.85 251.347,210.184 250.5,213.5C 249.327,205.813 252.327,200.646 259.5,198C 273.829,197.5 288.163,197.333 302.5,197.5C 302.5,196.167 302.5,194.833 302.5,193.5 Z"/></g>
<g><path style="opacity:1" fill="#9bbbfa" d="M 241.5,319.5 C 240.5,319.5 239.5,319.5 238.5,319.5C 220.659,319.17 202.992,319.503 185.5,320.5C 185.768,322.099 185.434,323.432 184.5,324.5C 184.657,323.127 184.49,321.793 184,320.5C 183.259,319.359 182.425,319.359 181.5,320.5C 180.67,326.138 180.17,331.804 180,337.5C 179.768,338.737 179.268,339.737 178.5,340.5C 178.576,335.652 178.909,330.819 179.5,326C 179.516,322.987 178.516,320.487 176.5,318.5C 177.373,316.587 178.373,314.753 179.5,313C 198.077,311.692 216.743,311.025 235.5,311C 236.425,303.008 237.758,295.175 239.5,287.5C 240.854,280.684 241.854,273.684 242.5,266.5C 242.5,264.833 242.5,263.167 242.5,261.5C 244.898,245.363 247.565,229.363 250.5,213.5C 251.347,210.184 252.514,206.85 254,203.5C 255.715,200.603 258.215,199.269 261.5,199.5C 260.24,212.572 258.24,225.572 255.5,238.5C 256.344,243.807 256.177,249.14 255,254.5C 254.879,256.727 254.046,258.56 252.5,260C 252.833,260.333 253.167,260.667 253.5,261C 252.5,266 251.5,271 250.5,276C 250.833,276.333 251.167,276.667 251.5,277C 250.74,278.441 250.074,279.941 249.5,281.5C 249.554,284.366 249.554,287.199 249.5,290C 248.833,291.667 248.167,293.333 247.5,295C 247.833,295.333 248.167,295.667 248.5,296C 247.411,302.716 246.077,309.383 244.5,316C 245.361,318.321 244.361,319.487 241.5,319.5 Z"/></g>
<g><path style="opacity:0.969" fill="#7f7c91" d="M 87.5,201.5 C 106.993,200.503 126.66,200.17 146.5,200.5C 147.906,200.973 148.573,201.973 148.5,203.5C 147.711,203.217 147.044,202.717 146.5,202C 126.836,201.5 107.169,201.333 87.5,201.5 Z"/></g>
<g><path style="opacity:0.999" fill="#4d4c67" d="M 87.5,201.5 C 107.169,201.333 126.836,201.5 146.5,202C 147.044,202.717 147.711,203.217 148.5,203.5C 153.512,204.948 158.512,206.615 163.5,208.5C 166.167,211.5 168.833,214.5 171.5,217.5C 167.936,218.423 164.269,218.756 160.5,218.5C 160.243,222.171 159.243,225.505 157.5,228.5C 157.782,225.09 158.449,221.757 159.5,218.5C 154.682,217.188 150.015,217.188 145.5,218.5C 143.167,218.5 140.833,218.5 138.5,218.5C 139.384,223.804 140.051,229.137 140.5,234.5C 141.5,234.5 142.5,234.5 143.5,234.5C 143.194,231.615 143.527,228.948 144.5,226.5C 144.5,227.833 144.5,229.167 144.5,230.5C 148.833,230.5 153.167,230.5 157.5,230.5C 155.324,241.891 152.824,253.224 150,264.5C 148.869,270.112 148.369,275.779 148.5,281.5C 148.785,283.288 148.452,284.955 147.5,286.5C 142.131,290.218 136.797,293.884 131.5,297.5C 132.907,290.58 133.907,283.58 134.5,276.5C 132.571,260.92 129.571,245.586 125.5,230.5C 129.833,230.5 134.167,230.5 138.5,230.5C 138.073,226.176 137.739,221.842 137.5,217.5C 132.833,217.5 128.167,217.5 123.5,217.5C 111.829,217.667 100.162,217.5 88.5,217C 87.5286,211.928 87.1953,206.762 87.5,201.5 Z"/></g>
<g><path style="opacity:0.997" fill="#5d5972" d="M 197.5,207.5 C 196.766,208.929 195.599,209.929 194,210.5C 188.702,208.023 183.536,205.356 178.5,202.5C 178.389,201.883 178.056,201.383 177.5,201C 185.167,200.333 192.833,200.333 200.5,201C 199.086,202.993 198.086,205.16 197.5,207.5 Z"/></g>
<g><path style="opacity:1" fill="#293b4a" d="M 408.5,181.5 C 410.836,183.004 412.669,185.004 414,187.5C 417.01,193.06 419.51,198.727 421.5,204.5C 421.886,212.613 421.219,220.613 419.5,228.5C 418.833,228.5 418.167,228.5 417.5,228.5C 416.488,227.128 415.488,225.795 414.5,224.5C 418.577,209.255 416.577,194.922 408.5,181.5 Z"/></g>
<g><path style="opacity:1" fill="#8878d4" d="M 230.5,196.5 C 229.868,200.431 228.201,203.765 225.5,206.5C 226.132,202.569 227.799,199.235 230.5,196.5 Z"/></g>
<g><path style="opacity:1" fill="#0f0c04" d="M 398.5,214.5 C 397.508,212.974 396.008,212.307 394,212.5C 392.615,212.514 391.449,212.848 390.5,213.5C 389.378,215.288 389.211,217.288 390,219.5C 393.356,221.519 396.856,223.186 400.5,224.5C 400.973,225.906 401.973,226.573 403.5,226.5C 406.485,228.487 408.485,231.154 409.5,234.5C 410.077,238.08 409.077,241.08 406.5,243.5C 404.269,245.11 402.269,246.943 400.5,249C 398.19,249.497 395.857,249.663 393.5,249.5C 389.489,249.498 385.822,248.332 382.5,246C 379.068,243.633 378.735,240.966 381.5,238C 384.667,237.465 387.334,238.465 389.5,241C 392.167,241.667 394.833,241.667 397.5,241C 400.346,237.742 400.013,234.908 396.5,232.5C 395.486,231.326 394.153,230.66 392.5,230.5C 390.488,229.772 388.488,228.938 386.5,228C 378.568,220.591 378.568,213.258 386.5,206C 393.168,203.227 399.002,204.393 404,209.5C 404.342,213.32 402.509,214.986 398.5,214.5 Z"/></g>
<g><path style="opacity:1" fill="#100d02" d="M 366.5,247.5 C 361.833,248.833 357.167,248.833 352.5,247.5C 350.542,246.209 348.876,244.542 347.5,242.5C 348.143,239.025 350.143,237.859 353.5,239C 356.605,241.964 359.772,242.13 363,239.5C 363.333,228.833 363.667,218.167 364,207.5C 366.667,204.833 369.333,204.833 372,207.5C 372.667,218.5 372.667,229.5 372,240.5C 371.065,243.595 369.231,245.929 366.5,247.5 Z"/></g>
<g><path style="opacity:1" fill="#7e720e" d="M 390.5,213.5 C 391.449,212.848 392.615,212.514 394,212.5C 396.008,212.307 397.508,212.974 398.5,214.5C 395.904,213.735 393.237,213.401 390.5,213.5 Z"/></g>
<g><path style="opacity:0.455" fill="#52698b" d="M 86.5,201.5 C 86.8333,201.5 87.1667,201.5 87.5,201.5C 87.1953,206.762 87.5286,211.928 88.5,217C 100.162,217.5 111.829,217.667 123.5,217.5C 123.5,218.833 123.5,220.167 123.5,221.5C 122.596,220.791 122.263,219.791 122.5,218.5C 110.829,218.667 99.1619,218.5 87.5,218C 85.2543,212.636 84.921,207.136 86.5,201.5 Z"/></g>
<g><path style="opacity:0.994" fill="#171830" d="M 123.5,217.5 C 128.167,217.5 132.833,217.5 137.5,217.5C 137.739,221.842 138.073,226.176 138.5,230.5C 134.167,230.5 129.833,230.5 125.5,230.5C 125.01,227.345 124.344,224.345 123.5,221.5C 123.5,220.167 123.5,218.833 123.5,217.5 Z"/></g>
<g><path style="opacity:0.996" fill="#171830" d="M 157.5,228.5 C 157.5,229.167 157.5,229.833 157.5,230.5C 153.167,230.5 148.833,230.5 144.5,230.5C 144.5,229.167 144.5,227.833 144.5,226.5C 144.575,223.794 144.908,221.127 145.5,218.5C 150.015,217.188 154.682,217.188 159.5,218.5C 158.449,221.757 157.782,225.09 157.5,228.5 Z"/></g>
<g><path style="opacity:0.267" fill="#5e96bf" d="M 145.5,218.5 C 144.908,221.127 144.575,223.794 144.5,226.5C 143.527,228.948 143.194,231.615 143.5,234.5C 142.5,234.5 141.5,234.5 140.5,234.5C 140.051,229.137 139.384,223.804 138.5,218.5C 140.833,218.5 143.167,218.5 145.5,218.5 Z"/></g>
<g><path style="opacity:0.267" fill="#629dc6" d="M 222.5,211.5 C 221.728,214.361 221.395,217.195 221.5,220C 224.328,234.133 226.994,248.3 229.5,262.5C 201.805,264.569 175.471,271.569 150.5,283.5C 149.818,282.757 149.151,282.091 148.5,281.5C 148.369,275.779 148.869,270.112 150,264.5C 152.824,253.224 155.324,241.891 157.5,230.5C 157.5,229.833 157.5,229.167 157.5,228.5C 159.243,225.505 160.243,222.171 160.5,218.5C 164.269,218.756 167.936,218.423 171.5,217.5C 177.416,224.646 184.416,230.646 192.5,235.5C 195.784,236.657 199.118,236.824 202.5,236C 205.939,233.566 209.106,230.733 212,227.5C 216.18,222.511 219.68,217.178 222.5,211.5 Z"/></g>
<g><path style="opacity:0.094" fill="#3ca4b4" d="M 84.5,234.5 C 82.9826,234.489 81.8159,233.823 81,232.5C 80.6012,232.728 80.4346,233.062 80.5,233.5C 73.7025,228.117 66.0358,224.451 57.5,222.5C 56.5707,221.685 55.5707,220.852 54.5,220C 67.0473,219.775 77.0473,224.608 84.5,234.5 Z"/></g>
<g><path style="opacity:1" fill="#83acd9" d="M 321.5,200.5 C 319.473,228.783 331.806,247.45 358.5,256.5C 357.89,257.391 357.557,258.391 357.5,259.5C 351.606,256.386 345.606,253.553 339.5,251C 322.858,237.211 316.858,220.378 321.5,200.5 Z"/></g>
<g><path style="opacity:0.998" fill="#fafbfb" d="M 57.5,222.5 C 66.0358,224.451 73.7025,228.117 80.5,233.5C 97.3579,251.99 97.6912,270.823 81.5,290C 67.1577,301.548 51.4911,303.548 34.5,296C 31.2711,293.259 27.9378,290.759 24.5,288.5C 9.3175,266.25 11.9842,246.416 32.5,229C 40.2218,224.486 48.5551,222.32 57.5,222.5 Z"/></g>
<g><path style="opacity:1" fill="#75690d" d="M 400.5,224.5 C 402.027,224.427 403.027,225.094 403.5,226.5C 401.973,226.573 400.973,225.906 400.5,224.5 Z"/></g>
<g><path style="opacity:0.267" fill="#619dc6" d="M 417.5,228.5 C 418.167,228.5 418.833,228.5 419.5,228.5C 441.151,241.132 461.151,256.132 479.5,273.5C 479.5,298.833 479.5,324.167 479.5,349.5C 462.882,378.442 438.549,397.775 406.5,407.5C 405.026,400.251 403.359,392.918 401.5,385.5C 395.588,349.225 389.588,312.892 383.5,276.5C 384.217,270.233 385.551,264.233 387.5,258.5C 398.553,254.233 407.386,247.233 414,237.5C 415.741,234.691 416.908,231.691 417.5,228.5 Z"/></g>
<g><path style="opacity:1" fill="#7c700e" d="M 392.5,230.5 C 394.153,230.66 395.486,231.326 396.5,232.5C 394.62,232.771 393.287,232.104 392.5,230.5 Z"/></g>
<g><path style="opacity:1" fill="#ef6462" d="M 58.5,238.5 C 59.6225,240.288 59.7891,242.288 59,244.5C 56.3333,247.167 53.6667,249.833 51,252.5C 50.5752,255.672 50.9085,258.672 52,261.5C 49.1535,259.042 47.8201,256.042 48,252.5C 50.6824,249.65 53.5157,246.984 56.5,244.5C 57.7472,242.677 58.4139,240.677 58.5,238.5 Z"/></g>
<g><path style="opacity:1" fill="#6d620c" d="M 352.5,247.5 C 357.167,248.833 361.833,248.833 366.5,247.5C 366.389,248.117 366.056,248.617 365.5,249C 361.5,249.667 357.5,249.667 353.5,249C 352.944,248.617 352.611,248.117 352.5,247.5 Z"/></g>
<g><path style="opacity:0.439" fill="#33687d" d="M 414.5,224.5 C 415.488,225.795 416.488,227.128 417.5,228.5C 416.908,231.691 415.741,234.691 414,237.5C 407.386,247.233 398.553,254.233 387.5,258.5C 388.494,256.666 388.494,254.999 387.5,253.5C 389.81,252.675 391.81,251.342 393.5,249.5C 395.857,249.663 398.19,249.497 400.5,249C 402.269,246.943 404.269,245.11 406.5,243.5C 409.077,241.08 410.077,238.08 409.5,234.5C 411.199,231.101 412.866,227.768 414.5,224.5 Z"/></g>
<g><path style="opacity:0.996" fill="#1e1d35" d="M 140.5,239.5 C 141.16,240.964 141.493,242.631 141.5,244.5C 141.229,254.892 139.395,264.892 136,274.5C 135.436,271.845 134.936,269.179 134.5,266.5C 136.184,257.383 138.184,248.383 140.5,239.5 Z"/></g>
<g><path style="opacity:1" fill="#ef605d" d="M 60.5,247.5 C 61.2389,247.369 61.9056,247.536 62.5,248C 59.8207,249.346 57.8207,251.346 56.5,254C 57.7558,255.845 58.7558,257.845 59.5,260C 59.0696,261.434 58.2362,262.601 57,263.5C 56.7837,261.616 56.117,259.949 55,258.5C 53.9681,253.374 55.8014,249.707 60.5,247.5 Z"/></g>
<g><path style="opacity:0.439" fill="#4a7378" d="M 358.5,256.5 C 363.167,256.5 367.833,256.5 372.5,256.5C 372.5,256.833 372.5,257.167 372.5,257.5C 371.833,257.5 371.167,257.5 370.5,257.5C 368.801,257.34 367.134,257.506 365.5,258C 366.252,258.671 366.586,259.504 366.5,260.5C 363.391,260.736 360.391,260.403 357.5,259.5C 357.557,258.391 357.89,257.391 358.5,256.5 Z"/></g>
<g><path style="opacity:0.267" fill="#619cc5" d="M 357.5,259.5 C 360.391,260.403 363.391,260.736 366.5,260.5C 368.249,265.594 369.582,270.927 370.5,276.5C 363.762,317.599 356.595,358.599 349,399.5C 348.46,408.524 348.793,417.524 350,426.5C 350.383,427.056 350.883,427.389 351.5,427.5C 351.167,428.167 350.833,428.833 350.5,429.5C 349.206,427.952 348.539,425.952 348.5,423.5C 347.403,403.146 346.07,382.813 344.5,362.5C 344.048,356.906 344.048,351.406 344.5,346C 344.167,345.833 343.833,345.667 343.5,345.5C 342.749,346.376 342.249,347.376 342,348.5C 341.362,345.236 340.196,342.236 338.5,339.5C 340.606,340.566 342.106,342.233 343,344.5C 342.762,336.551 342.262,328.551 341.5,320.5C 344.793,319.59 347.293,317.59 349,314.5C 351.795,296.099 354.628,277.765 357.5,259.5 Z"/></g>
<g><path style="opacity:0.986" fill="#4c4e69" d="M 387.5,253.5 C 388.494,254.999 388.494,256.666 387.5,258.5C 385.551,264.233 384.217,270.233 383.5,276.5C 389.588,312.892 395.588,349.225 401.5,385.5C 403.359,392.918 405.026,400.251 406.5,407.5C 408.98,422.521 411.646,437.521 414.5,452.5C 413.906,456.475 411.739,457.475 408,455.5C 405.289,440.334 402.123,425.334 398.5,410.5C 396.703,397.383 394.37,384.383 391.5,371.5C 381.5,371.5 371.5,371.5 361.5,371.5C 359.649,386.756 356.649,401.756 352.5,416.5C 352.624,417.107 352.957,417.44 353.5,417.5C 352.626,420.789 351.959,424.123 351.5,427.5C 350.883,427.389 350.383,427.056 350,426.5C 348.793,417.524 348.46,408.524 349,399.5C 356.595,358.599 363.762,317.599 370.5,276.5C 369.582,270.927 368.249,265.594 366.5,260.5C 366.586,259.504 366.252,258.671 365.5,258C 367.134,257.506 368.801,257.34 370.5,257.5C 369.093,262.591 369.427,267.591 371.5,272.5C 372.992,267.53 374.326,262.53 375.5,257.5C 374.5,257.5 373.5,257.5 372.5,257.5C 372.5,257.167 372.5,256.833 372.5,256.5C 377.55,255.812 382.55,254.812 387.5,253.5 Z"/></g>
<g><path style="opacity:0.995" fill="#1f1e36" d="M 370.5,257.5 C 371.167,257.5 371.833,257.5 372.5,257.5C 373.5,257.5 374.5,257.5 375.5,257.5C 374.326,262.53 372.992,267.53 371.5,272.5C 369.427,267.591 369.093,262.591 370.5,257.5 Z"/></g>
<g><path style="opacity:0.999" fill="#181548" d="M 229.5,262.5 C 233.466,263.162 237.466,263.495 241.5,263.5C 241.5,264.5 241.5,265.5 241.5,266.5C 240.395,273.449 239.728,280.449 239.5,287.5C 237.758,295.175 236.425,303.008 235.5,311C 216.743,311.025 198.077,311.692 179.5,313C 178.373,314.753 177.373,316.587 176.5,318.5C 178.516,320.487 179.516,322.987 179.5,326C 178.909,330.819 178.576,335.652 178.5,340.5C 177.398,353.156 176.398,365.823 175.5,378.5C 174.883,378.389 174.383,378.056 174,377.5C 173.256,369.797 171.756,362.464 169.5,355.5C 169.5,345.5 169.5,335.5 169.5,325.5C 168.209,325.263 167.209,325.596 166.5,326.5C 163.516,328.001 160.85,330.001 158.5,332.5C 156.554,334.734 155.387,337.401 155,340.5C 152.766,350.79 150.933,361.124 149.5,371.5C 146.794,389.208 142.794,406.542 137.5,423.5C 137.863,424.183 138.196,424.85 138.5,425.5C 137.85,427.435 137.517,429.435 137.5,431.5C 128.735,432.815 120.068,432.815 111.5,431.5C 112.241,426.758 112.241,422.092 111.5,417.5C 111.5,416.833 111.5,416.167 111.5,415.5C 112.302,414.048 112.802,412.382 113,410.5C 114.325,388.166 115.491,365.833 116.5,343.5C 114.44,325.698 119.44,310.365 131.5,297.5C 136.797,293.884 142.131,290.218 147.5,286.5C 148.452,284.955 148.785,283.288 148.5,281.5C 149.151,282.091 149.818,282.757 150.5,283.5C 175.471,271.569 201.805,264.569 229.5,262.5 Z"/></g>
<g><path style="opacity:1" fill="#6aa8d6" d="M 65.5,263.5 C 68.0449,261.977 70.0449,262.643 71.5,265.5C 70.6578,268.738 68.6578,270.238 65.5,270C 69.3551,267.436 69.3551,265.269 65.5,263.5 Z"/></g>
<g><path style="opacity:1" fill="#74adda" d="M 41.5,263.5 C 44.5412,264.509 47.7079,265.176 51,265.5C 54.8558,265.074 58.6891,264.907 62.5,265C 55.2652,267.817 47.9319,267.984 40.5,265.5C 40.8627,264.817 41.1961,264.15 41.5,263.5 Z"/></g>
<g><path style="opacity:1" fill="#589fd1" d="M 44.5,268.5 C 65.7736,269.53 65.7736,270.53 44.5,271.5C 44.5,270.5 44.5,269.5 44.5,268.5 Z"/></g>
<g><path style="opacity:1" fill="#4695cc" d="M 45.5,273.5 C 50.1358,274.149 54.8024,274.649 59.5,275C 55.3537,276.595 51.0204,276.928 46.5,276C 45.7476,275.329 45.4142,274.496 45.5,273.5 Z"/></g>
<g><path style="opacity:1" fill="#86b8de" d="M 37.5,277.5 C 46.3507,279.486 55.3507,279.986 64.5,279C 65.7659,278.691 66.9326,278.191 68,277.5C 68.6449,278.646 69.4783,279.646 70.5,280.5C 65.8233,282.931 60.8233,283.931 55.5,283.5C 52.5,283.333 49.5,283.167 46.5,283C 51.1667,282.667 55.8333,282.333 60.5,282C 52.8084,281.692 45.1417,281.192 37.5,280.5C 37.5,279.5 37.5,278.5 37.5,277.5 Z"/></g>
<g><path style="opacity:1" fill="#6678ae" d="M 241.5,266.5 C 241.833,266.5 242.167,266.5 242.5,266.5C 241.854,273.684 240.854,280.684 239.5,287.5C 239.728,280.449 240.395,273.449 241.5,266.5 Z"/></g>
<g><path style="opacity:0.998" fill="#1d1c34" d="M 381.5,277.5 C 382.886,280.215 383.553,283.215 383.5,286.5C 382.234,293.853 380.734,301.187 379,308.5C 377.912,306.615 377.079,304.615 376.5,302.5C 378.297,294.179 379.964,285.846 381.5,277.5 Z"/></g>
<g><path style="opacity:0.169" fill="#1b323e" d="M 84.5,234.5 C 87.3659,236.546 89.5325,239.213 91,242.5C 100.036,267.394 93.2031,286.561 70.5,300C 52.1009,307.496 36.7675,303.662 24.5,288.5C 27.9378,290.759 31.2711,293.259 34.5,296C 51.4911,303.548 67.1577,301.548 81.5,290C 97.6912,270.823 97.3579,251.99 80.5,233.5C 80.4346,233.062 80.6012,232.728 81,232.5C 81.8159,233.823 82.9826,234.489 84.5,234.5 Z"/></g>
<g><path style="opacity:0.267" fill="#6099c1" d="M 375.5,307.5 C 377.19,310.185 378.69,313.185 380,316.5C 382.223,332.72 385.39,348.72 389.5,364.5C 381.167,364.5 372.833,364.5 364.5,364.5C 368.813,345.65 372.48,326.65 375.5,307.5 Z"/></g>
<g><path style="opacity:1" fill="#505d95" d="M 185.5,320.5 C 202.992,319.503 220.659,319.17 238.5,319.5C 236.794,321.536 234.461,322.536 231.5,322.5C 231.611,321.883 231.944,321.383 232.5,321C 216.837,320.5 201.17,320.333 185.5,320.5 Z"/></g>
<g><path style="opacity:1" fill="#b7cdf5" d="M 184.5,324.5 C 184.092,340.259 183.092,355.926 181.5,371.5C 179.99,379.284 179.323,387.284 179.5,395.5C 179.5,396.5 179.5,397.5 179.5,398.5C 178.137,410.687 177.137,423.021 176.5,435.5C 176.511,437.045 176.844,438.378 177.5,439.5C 177.5,441.167 177.5,442.833 177.5,444.5C 175.577,448.029 174.911,452.029 175.5,456.5C 175.138,464.215 174.471,471.881 173.5,479.5C 171.167,479.5 168.833,479.5 166.5,479.5C 167.633,465.178 168.633,450.844 169.5,436.5C 171.308,435.082 171.975,433.082 171.5,430.5C 171.5,428.5 171.5,426.5 171.5,424.5C 172.112,409.882 173.445,395.215 175.5,380.5C 175.5,379.833 175.5,379.167 175.5,378.5C 176.398,365.823 177.398,353.156 178.5,340.5C 179.268,339.737 179.768,338.737 180,337.5C 180.17,331.804 180.67,326.138 181.5,320.5C 182.425,319.359 183.259,319.359 184,320.5C 184.49,321.793 184.657,323.127 184.5,324.5 Z"/></g>
<g><path style="opacity:0.999" fill="#191549" d="M 185.5,320.5 C 201.17,320.333 216.837,320.5 232.5,321C 231.944,321.383 231.611,321.883 231.5,322.5C 218.304,324.198 210.471,331.532 208,344.5C 207.764,359.528 208.43,374.528 210,389.5C 212.383,403.798 214.55,418.131 216.5,432.5C 208.826,432.666 201.159,432.5 193.5,432C 192.584,431.722 191.918,431.222 191.5,430.5C 186.09,420.257 182.09,409.591 179.5,398.5C 179.5,397.5 179.5,396.5 179.5,395.5C 180.817,387.701 181.483,379.701 181.5,371.5C 183.092,355.926 184.092,340.259 184.5,324.5C 185.434,323.432 185.768,322.099 185.5,320.5 Z"/></g>
<g><path style="opacity:0.267" fill="#619dc6" d="M 238.5,319.5 C 239.5,319.5 240.5,319.5 241.5,319.5C 243.607,320.468 245.941,320.802 248.5,320.5C 251.519,353.769 254.019,387.102 256,420.5C 256.622,428.852 256.455,437.186 255.5,445.5C 250.984,447.105 246.318,448.272 241.5,449C 233.292,449.75 225.292,450.25 217.5,450.5C 216.593,448.343 215.927,446.01 215.5,443.5C 217.857,443.663 220.19,443.497 222.5,443C 223.803,439.532 223.803,436.032 222.5,432.5C 220.484,431.306 218.484,431.306 216.5,432.5C 214.55,418.131 212.383,403.798 210,389.5C 208.43,374.528 207.764,359.528 208,344.5C 210.471,331.532 218.304,324.198 231.5,322.5C 234.461,322.536 236.794,321.536 238.5,319.5 Z"/></g>
<g><path style="opacity:0.996" fill="#a6c4f9" d="M 248.5,320.5 C 250.833,320.5 253.167,320.5 255.5,320.5C 256.617,343.187 258.117,365.854 260,388.5C 260.191,386.292 260.691,384.292 261.5,382.5C 260.299,403.006 258.799,423.672 257,444.5C 256.617,445.056 256.117,445.389 255.5,445.5C 256.455,437.186 256.622,428.852 256,420.5C 254.019,387.102 251.519,353.769 248.5,320.5 Z"/></g>
<g><path style="opacity:0.267" fill="#6aa2ce" d="M 255.5,320.5 C 259.042,320.187 262.375,320.521 265.5,321.5C 265.5,324.5 265.5,327.5 265.5,330.5C 265.183,347.92 263.85,365.253 261.5,382.5C 260.691,384.292 260.191,386.292 260,388.5C 258.117,365.854 256.617,343.187 255.5,320.5 Z"/></g>
<g><path style="opacity:1" fill="#bfd4fc" d="M 264.5,410.5 C 264.654,416.859 264.321,423.192 263.5,429.5C 263.912,434.349 264.579,439.015 265.5,443.5C 265.5,445.167 265.5,446.833 265.5,448.5C 265.44,449.043 265.107,449.376 264.5,449.5C 263.376,447.631 262.543,445.631 262,443.5C 260.331,447.992 260.165,452.492 261.5,457C 259.299,460.986 258.965,465.152 260.5,469.5C 259.358,472.399 258.692,475.399 258.5,478.5C 257.167,478.5 255.833,478.5 254.5,478.5C 254.5,474.5 254.5,470.5 254.5,466.5C 254.502,459.48 254.835,452.48 255.5,445.5C 256.117,445.389 256.617,445.056 257,444.5C 258.799,423.672 260.299,403.006 261.5,382.5C 263.85,365.253 265.183,347.92 265.5,330.5C 266.581,327.373 267.247,324.04 267.5,320.5C 268.5,320.5 269.5,320.5 270.5,320.5C 268.5,350.5 266.5,380.5 264.5,410.5 Z"/></g>
<g><path style="opacity:0.267" fill="#629ec7" d="M 271.5,320.5 C 292.5,320.5 313.5,320.5 334.5,320.5C 334.263,321.791 334.596,322.791 335.5,323.5C 335.5,327.167 335.5,330.833 335.5,334.5C 333.973,334.573 332.973,333.906 332.5,332.5C 328.006,328.269 323.006,325.102 317.5,323C 309.362,326.819 302.195,331.986 296,338.5C 290.394,346.885 290.061,355.552 295,364.5C 297.999,372.664 303.499,378.331 311.5,381.5C 316.677,379.997 321.677,378.33 326.5,376.5C 328.308,376.509 329.975,376.009 331.5,375C 334.266,373.629 336.599,371.796 338.5,369.5C 339.811,367.44 339.811,365.274 338.5,363C 340.255,360.07 341.422,356.903 342,353.5C 343.149,356.393 343.649,359.393 343.5,362.5C 343.836,365.479 342.669,368.146 340,370.5C 340.209,386.187 341.043,401.854 342.5,417.5C 334.561,418.364 326.561,418.53 318.5,418C 301.566,428.134 283.899,436.634 265.5,443.5C 264.579,439.015 263.912,434.349 263.5,429.5C 264.321,423.192 264.654,416.859 264.5,410.5C 265.222,410.082 265.722,409.416 266,408.5C 268.055,379.176 269.888,349.843 271.5,320.5 Z"/></g>
<g><path style="opacity:0.961" fill="#a4c3f8" d="M 341.5,320.5 C 342.262,328.551 342.762,336.551 343,344.5C 342.106,342.233 340.606,340.566 338.5,339.5C 337.925,337.589 336.925,335.922 335.5,334.5C 335.5,330.833 335.5,327.167 335.5,323.5C 335.5,322.5 335.5,321.5 335.5,320.5C 337.612,319.725 339.612,319.725 341.5,320.5 Z"/></g>
<g><path style="opacity:0.337" fill="#47a1bf" d="M 332.5,332.5 C 321.149,327.147 311.316,329.147 303,338.5C 297.717,348.778 298.551,358.445 305.5,367.5C 305.062,367.435 304.728,367.601 304.5,368C 310.635,373.9 317.968,376.733 326.5,376.5C 321.677,378.33 316.677,379.997 311.5,381.5C 303.499,378.331 297.999,372.664 295,364.5C 290.061,355.552 290.394,346.885 296,338.5C 302.195,331.986 309.362,326.819 317.5,323C 323.006,325.102 328.006,328.269 332.5,332.5 Z"/></g>
<g><path style="opacity:0.267" fill="#609ac3" d="M 166.5,326.5 C 167.242,336.189 168.242,345.856 169.5,355.5C 170.485,364.559 171.985,373.559 174,382.5C 174.278,381.584 174.778,380.918 175.5,380.5C 173.445,395.215 172.112,409.882 171.5,424.5C 171.587,417.46 171.087,410.46 170,403.5C 165.378,379.985 161.545,356.318 158.5,332.5C 160.85,330.001 163.516,328.001 166.5,326.5 Z"/></g>
<g><path style="opacity:0.784" fill="#2d3a67" d="M 166.5,326.5 C 167.209,325.596 168.209,325.263 169.5,325.5C 169.5,335.5 169.5,345.5 169.5,355.5C 168.242,345.856 167.242,336.189 166.5,326.5 Z"/></g>
<g><path style="opacity:1" fill="#608fbd" d="M 332.5,332.5 C 332.973,333.906 333.973,334.573 335.5,334.5C 336.925,335.922 337.925,337.589 338.5,339.5C 340.196,342.236 341.362,345.236 342,348.5C 342.249,347.376 342.749,346.376 343.5,345.5C 343.833,345.667 344.167,345.833 344.5,346C 344.048,351.406 344.048,356.906 344.5,362.5C 344.167,362.5 343.833,362.5 343.5,362.5C 343.649,359.393 343.149,356.393 342,353.5C 341.422,356.903 340.255,360.07 338.5,363C 339.811,365.274 339.811,367.44 338.5,369.5C 338.539,368.244 338.039,367.244 337,366.5C 326.733,375.439 316.233,375.773 305.5,367.5C 298.551,358.445 297.717,348.778 303,338.5C 311.316,329.147 321.149,327.147 332.5,332.5 Z"/></g>
<g><path style="opacity:0.984" fill="#4e506c" d="M 158.5,332.5 C 161.545,356.318 165.378,379.985 170,403.5C 171.087,410.46 171.587,417.46 171.5,424.5C 171.5,426.5 171.5,428.5 171.5,430.5C 170.71,431.609 170.21,432.942 170,434.5C 164.17,413.828 159.67,392.828 156.5,371.5C 154.167,371.5 151.833,371.5 149.5,371.5C 150.933,361.124 152.766,350.79 155,340.5C 155.387,337.401 156.554,334.734 158.5,332.5 Z"/></g>
<g><path style="opacity:1" fill="#f3f6f9" d="M 319.5,337.5 C 324.836,337.363 328.836,339.529 331.5,344C 329.178,348.009 326.511,348.342 323.5,345C 317.934,343.733 314.601,345.899 313.5,351.5C 314.299,355.3 316.633,357.3 320.5,357.5C 322.798,357.268 324.965,356.601 327,355.5C 328.626,356.289 330.126,357.289 331.5,358.5C 327.593,364.144 322.259,365.978 315.5,364C 307.963,359.968 305.463,353.802 308,345.5C 310.772,341.206 314.605,338.539 319.5,337.5 Z"/></g>
<g><path style="opacity:0.759" fill="#9ec0f4" d="M 271.5,320.5 C 269.888,349.843 268.055,379.176 266,408.5C 265.722,409.416 265.222,410.082 264.5,410.5C 266.5,380.5 268.5,350.5 270.5,320.5C 269.5,320.5 268.5,320.5 267.5,320.5C 267.247,324.04 266.581,327.373 265.5,330.5C 265.5,327.5 265.5,324.5 265.5,321.5C 267.317,319.49 269.317,319.157 271.5,320.5 Z"/></g>
<g><path style="opacity:1" fill="#c7d6e7" d="M 330.5,349.5 C 332.844,350.672 335.177,350.672 337.5,349.5C 340.167,350.833 340.167,352.167 337.5,353.5C 335.689,352.264 333.856,352.264 332,353.5C 329.5,352.842 329,351.509 330.5,349.5 Z"/></g>
<g><path style="opacity:0.439" fill="#327084" d="M 338.5,369.5 C 336.599,371.796 334.266,373.629 331.5,375C 329.975,376.009 328.308,376.509 326.5,376.5C 317.968,376.733 310.635,373.9 304.5,368C 304.728,367.601 305.062,367.435 305.5,367.5C 316.233,375.773 326.733,375.439 337,366.5C 338.039,367.244 338.539,368.244 338.5,369.5 Z"/></g>
<g><path style="opacity:0.996" fill="#a6c4f6" d="M 343.5,362.5 C 343.833,362.5 344.167,362.5 344.5,362.5C 346.07,382.813 347.403,403.146 348.5,423.5C 348.539,425.952 349.206,427.952 350.5,429.5C 352.014,445.868 353.347,462.535 354.5,479.5C 352.167,479.5 349.833,479.5 347.5,479.5C 346.076,471.914 345.076,464.247 344.5,456.5C 345.956,448.757 345.622,441.091 343.5,433.5C 342.725,428.203 342.392,422.87 342.5,417.5C 341.043,401.854 340.209,386.187 340,370.5C 342.669,368.146 343.836,365.479 343.5,362.5 Z"/></g>
<g><path style="opacity:0.267" fill="#609bc4" d="M 149.5,371.5 C 151.833,371.5 154.167,371.5 156.5,371.5C 159.67,392.828 164.17,413.828 170,434.5C 170.21,432.942 170.71,431.609 171.5,430.5C 171.975,433.082 171.308,435.082 169.5,436.5C 159.365,432.233 149.032,428.566 138.5,425.5C 138.196,424.85 137.863,424.183 137.5,423.5C 142.794,406.542 146.794,389.208 149.5,371.5 Z"/></g>
<g><path style="opacity:0.267" fill="#619cc5" d="M 398.5,410.5 C 383.769,414.414 368.769,416.748 353.5,417.5C 352.957,417.44 352.624,417.107 352.5,416.5C 356.649,401.756 359.649,386.756 361.5,371.5C 371.5,371.5 381.5,371.5 391.5,371.5C 394.37,384.383 396.703,397.383 398.5,410.5 Z"/></g>
<g><path style="opacity:0.682" fill="#2e3b66" d="M 169.5,355.5 C 171.756,362.464 173.256,369.797 174,377.5C 174.383,378.056 174.883,378.389 175.5,378.5C 175.5,379.167 175.5,379.833 175.5,380.5C 174.778,380.918 174.278,381.584 174,382.5C 171.985,373.559 170.485,364.559 169.5,355.5 Z"/></g>
<g><path style="opacity:1" fill="#6674aa" d="M 181.5,371.5 C 181.483,379.701 180.817,387.701 179.5,395.5C 179.323,387.284 179.99,379.284 181.5,371.5 Z"/></g>
<g><path style="opacity:0.525" fill="#2e3f6b" d="M 116.5,343.5 C 115.491,365.833 114.325,388.166 113,410.5C 112.802,412.382 112.302,414.048 111.5,415.5C 112.374,391.294 114.041,367.294 116.5,343.5 Z"/></g>
<g><path style="opacity:0.267" fill="#629bc5" d="M 179.5,398.5 C 182.09,409.591 186.09,420.257 191.5,430.5C 190.5,430.5 189.5,430.5 188.5,430.5C 188.395,434.687 189.228,438.687 191,442.5C 193.719,443.444 196.552,443.777 199.5,443.5C 199.5,444.5 199.5,445.5 199.5,446.5C 191.895,444.965 184.562,442.631 177.5,439.5C 176.844,438.378 176.511,437.045 176.5,435.5C 177.137,423.021 178.137,410.687 179.5,398.5 Z"/></g>
<g><path style="opacity:0.916" fill="#434861" d="M 110.5,417.5 C 110.833,417.5 111.167,417.5 111.5,417.5C 112.241,422.092 112.241,426.758 111.5,431.5C 110.209,431.737 109.209,431.404 108.5,430.5C 108.799,426.072 109.465,421.739 110.5,417.5 Z"/></g>
<g><path style="opacity:0.995" fill="#604de0" d="M 108.5,430.5 C 109.209,431.404 110.209,431.737 111.5,431.5C 120.068,432.815 128.735,432.815 137.5,431.5C 137.833,431.5 138.167,431.5 138.5,431.5C 138.5,434.833 138.5,438.167 138.5,441.5C 130.648,441.175 122.982,441.508 115.5,442.5C 114.833,442.833 114.167,443.167 113.5,443.5C 113.167,443.5 112.833,443.5 112.5,443.5C 111.081,442.549 109.415,442.216 107.5,442.5C 107.771,440.62 107.104,439.287 105.5,438.5C 105.5,435.833 105.5,433.167 105.5,430.5C 106.5,430.5 107.5,430.5 108.5,430.5 Z"/></g>
<g><path style="opacity:0.995" fill="#604fe0" d="M 191.5,430.5 C 191.918,431.222 192.584,431.722 193.5,432C 201.159,432.5 208.826,432.666 216.5,432.5C 217.919,433.451 219.585,433.784 221.5,433.5C 221.5,436.167 221.5,438.833 221.5,441.5C 213.981,441.175 206.648,441.508 199.5,442.5C 199.5,442.833 199.5,443.167 199.5,443.5C 196.552,443.777 193.719,443.444 191,442.5C 189.228,438.687 188.395,434.687 188.5,430.5C 189.5,430.5 190.5,430.5 191.5,430.5 Z"/></g>
<g><path style="opacity:0.761" fill="#6964d9" d="M 215.5,443.5 C 210.36,442.512 205.026,442.179 199.5,442.5C 206.648,441.508 213.981,441.175 221.5,441.5C 221.5,438.833 221.5,436.167 221.5,433.5C 219.585,433.784 217.919,433.451 216.5,432.5C 218.484,431.306 220.484,431.306 222.5,432.5C 223.803,436.032 223.803,439.532 222.5,443C 220.19,443.497 217.857,443.663 215.5,443.5 Z"/></g>
<g><path style="opacity:0.706" fill="#6869d9" d="M 138.5,431.5 C 139.748,432.334 140.415,433.667 140.5,435.5C 140.163,438.176 139.83,440.843 139.5,443.5C 136.833,443.5 134.167,443.5 131.5,443.5C 126.36,442.512 121.026,442.179 115.5,442.5C 122.982,441.508 130.648,441.175 138.5,441.5C 138.5,438.167 138.5,434.833 138.5,431.5 Z"/></g>
<g><path style="opacity:0.962" fill="#474f6a" d="M 105.5,438.5 C 107.104,439.287 107.771,440.62 107.5,442.5C 109.415,442.216 111.081,442.549 112.5,443.5C 111.705,447.476 111.038,451.476 110.5,455.5C 108.486,455.392 106.82,456.058 105.5,457.5C 105.047,456.542 104.381,455.708 103.5,455C 105.36,449.502 106.027,444.002 105.5,438.5 Z"/></g>
<g><path style="opacity:0.972" fill="#4a4e68" d="M 343.5,433.5 C 345.622,441.091 345.956,448.757 344.5,456.5C 342.833,456.5 341.167,456.5 339.5,456.5C 339.735,448.487 341.069,440.82 343.5,433.5 Z"/></g>
<g><path style="opacity:0.945" fill="#e4c7bc" d="M 115.5,442.5 C 121.026,442.179 126.36,442.512 131.5,443.5C 131.313,448.845 130.98,454.178 130.5,459.5C 124.925,460.452 119.259,460.786 113.5,460.5C 112.89,459.609 112.557,458.609 112.5,457.5C 113.441,452.93 113.774,448.263 113.5,443.5C 114.167,443.167 114.833,442.833 115.5,442.5 Z"/></g>
<g><path style="opacity:0.98" fill="#e1c2b7" d="M 199.5,442.5 C 205.026,442.179 210.36,442.512 215.5,443.5C 215.927,446.01 216.593,448.343 217.5,450.5C 218.461,453.426 219.127,456.426 219.5,459.5C 214.26,460.449 208.927,460.782 203.5,460.5C 203.5,460.167 203.5,459.833 203.5,459.5C 207.833,459.5 212.167,459.5 216.5,459.5C 216.729,454.995 216.063,450.661 214.5,446.5C 210.167,446.5 205.833,446.5 201.5,446.5C 202.162,450.466 202.495,454.466 202.5,458.5C 201.833,457.5 201.167,456.5 200.5,455.5C 200.878,452.629 200.544,449.629 199.5,446.5C 199.5,445.5 199.5,444.5 199.5,443.5C 199.5,443.167 199.5,442.833 199.5,442.5 Z"/></g>
<g><path style="opacity:1" fill="#fed5bc" d="M 116.5,446.5 C 120.5,446.5 124.5,446.5 128.5,446.5C 128.533,450.869 128.2,455.202 127.5,459.5C 123.5,459.5 119.5,459.5 115.5,459.5C 116.08,455.19 116.414,450.857 116.5,446.5 Z"/></g>
<g><path style="opacity:1" fill="#fed4bd" d="M 203.5,459.5 C 203.5,458.833 203.167,458.5 202.5,458.5C 202.495,454.466 202.162,450.466 201.5,446.5C 205.833,446.5 210.167,446.5 214.5,446.5C 216.063,450.661 216.729,454.995 216.5,459.5C 212.167,459.5 207.833,459.5 203.5,459.5 Z"/></g>
<g><path style="opacity:0.945" fill="#424b63" d="M 177.5,444.5 C 178.593,448.394 179.26,452.394 179.5,456.5C 178.167,456.5 176.833,456.5 175.5,456.5C 174.911,452.029 175.577,448.029 177.5,444.5 Z"/></g>
<g><path style="opacity:0.906" fill="#a6c4f5" d="M 265.5,448.5 C 266.563,458.23 267.563,468.064 268.5,478C 267.944,478.383 267.611,478.883 267.5,479.5C 262.833,479.5 258.167,479.5 253.5,479.5C 252.111,474.968 252.444,470.635 254.5,466.5C 254.5,470.5 254.5,474.5 254.5,478.5C 255.833,478.5 257.167,478.5 258.5,478.5C 258.692,475.399 259.358,472.399 260.5,469.5C 258.965,465.152 259.299,460.986 261.5,457C 260.165,452.492 260.331,447.992 262,443.5C 262.543,445.631 263.376,447.631 264.5,449.5C 265.107,449.376 265.44,449.043 265.5,448.5 Z"/></g>
<g><path style="opacity:0.376" fill="#5a7bce" d="M 110.5,455.5 C 110.833,456.5 111.5,457.167 112.5,457.5C 112.557,458.609 112.89,459.609 113.5,460.5C 112.833,460.5 112.167,460.5 111.5,460.5C 109.789,457.815 107.955,457.482 106,459.5C 105.601,459.272 105.435,458.938 105.5,458.5C 105.5,458.167 105.5,457.833 105.5,457.5C 106.82,456.058 108.486,455.392 110.5,455.5 Z"/></g>
<g><path style="opacity:0.463" fill="#5b7ad4" d="M 200.5,455.5 C 201.167,456.5 201.833,457.5 202.5,458.5C 203.167,458.5 203.5,458.833 203.5,459.5C 203.5,459.833 203.5,460.167 203.5,460.5C 201.315,460.704 199.315,461.37 197.5,462.5C 196.427,461.749 196.26,460.749 197,459.5C 198.72,458.616 199.886,457.283 200.5,455.5 Z"/></g>
<g><path style="opacity:0.376" fill="#5976d9" d="M 111.5,460.5 C 108.579,461.696 105.579,462.696 102.5,463.5C 100.727,460.324 101.727,458.657 105.5,458.5C 105.435,458.938 105.601,459.272 106,459.5C 107.955,457.482 109.789,457.815 111.5,460.5 Z"/></g>
<g><path style="opacity:0.978" fill="#14162c" d="M 130.5,459.5 C 131.117,459.611 131.617,459.944 132,460.5C 133.258,466.188 133.424,471.854 132.5,477.5C 116.51,478.666 100.51,478.833 84.5,478C 80.4975,476.015 79.8308,473.349 82.5,470C 89.5505,468.637 96.2172,466.47 102.5,463.5C 105.579,462.696 108.579,461.696 111.5,460.5C 112.167,460.5 112.833,460.5 113.5,460.5C 119.259,460.786 124.925,460.452 130.5,459.5 Z"/></g>
<g><path style="opacity:0.98" fill="#15162c" d="M 219.5,459.5 C 220.496,459.414 221.329,459.748 222,460.5C 223.452,465.078 224.619,469.745 225.5,474.5C 225.32,475.554 224.987,476.554 224.5,477.5C 211.179,478.666 197.846,478.833 184.5,478C 182.375,476.263 181.542,474.096 182,471.5C 185.611,469.297 189.444,467.464 193.5,466C 194.731,464.595 196.064,463.429 197.5,462.5C 199.315,461.37 201.315,460.704 203.5,460.5C 208.927,460.782 214.26,460.449 219.5,459.5 Z"/></g>
</svg>
